<svg xmlns="http://www.w3.org/2000/svg" viewBox="0 0 197 146.3"><linearGradient id="a" gradientUnits="userSpaceOnUse" x1="43.43" y1="52.056" x2="127.193" y2="52.056"><stop offset="0" stop-color="#75c16e"/><stop offset="1" stop-color="#516d57"/></linearGradient><path d="M123.3 63.7c.3-.6 7.8-15.8-5.1-17.1-13.2-1.3-32.4 17.5-32.4 17.5H43.4C55.7 53.9 67.9 47.6 78.9 44c8.7-2.8 16.7-4 23.5-4.1 9.1-.1 16.2 1.7 20 4.1 10 6.4 1.2 19.2.9 19.7z" fill="url(#a)"/><linearGradient id="b" gradientUnits="userSpaceOnUse" x1="44.138" y1="68.911" x2="90.864" y2="68.911"><stop offset="0" stop-color="#75c16e"/><stop offset="1" stop-color="#516d57"/></linearGradient><path d="M90.9 63.5c-3 3.1-4.8 5.5-4.8 5.5l-41.9 5.4c2.4-2.6 4.8-5 7.3-7.2H87l.9-.9c.7-.8 1.7-1.7 3-2.8z" fill="url(#b)"/><linearGradient id="c" gradientUnits="userSpaceOnUse" x1="46.145" y1="76.074" x2="90.979" y2="76.074"><stop offset="0" stop-color="#75c16e"/><stop offset="1" stop-color="#516d57"/></linearGradient><path d="M88.4 70.8s1-1.2 2.6-3c-2.5 3.4-3.9 5.9-3.9 5.9l-41 10.7c2.1-2.9 4.2-5.6 6.3-8.1l35.2-4.5.8-1z" fill="url(#c)"/><g><linearGradient id="d" gradientUnits="userSpaceOnUse" x1="57.091" y1="94.606" x2="140.854" y2="94.606"><stop offset="0" stop-color="#75c16e"/><stop offset="1" stop-color="#516d57"/></linearGradient><path d="M61 83c-.3.6-7.8 15.8 5.1 17.1 13.2 1.3 32.4-17.5 32.4-17.5h42.3c-12.3 10.2-24.5 16.5-35.5 20.1-8.7 2.8-16.7 4-23.5 4.1-9.1.1-16.2-1.7-20-4.1-10-6.4-1.1-19.2-.8-19.7z" fill="url(#d)"/><linearGradient id="e" gradientUnits="userSpaceOnUse" x1="93.42" y1="77.752" x2="140.145" y2="77.752"><stop offset="0" stop-color="#75c16e"/><stop offset="1" stop-color="#516d57"/></linearGradient><path d="M93.4 83.2c3-3.1 4.8-5.5 4.8-5.5l41.9-5.4c-2.4 2.6-4.8 5-7.3 7.2H97.4l-.9.9c-.8.7-1.8 1.7-3.1 2.8z" fill="url(#e)"/><linearGradient id="f" gradientUnits="userSpaceOnUse" x1="93.305" y1="70.588" x2="138.139" y2="70.588"><stop offset="0" stop-color="#75c16e"/><stop offset="1" stop-color="#516d57"/></linearGradient><path d="M95.9 75.9s-1 1.2-2.6 3c2.5-3.4 3.9-5.9 3.9-5.9l40.9-10.7c-2.1 2.9-4.2 5.6-6.3 8.1l-35.2 4.5-.7 1z" fill="url(#f)"/></g></svg>