<?xml version="1.0" encoding="utf-8"?>
<!-- Generator: Adobe Illustrator 22.0.1, SVG Export Plug-In . SVG Version: 6.00 Build 0)  -->
<svg version="1.1" id="Слой_3" xmlns="http://www.w3.org/2000/svg" xmlns:xlink="http://www.w3.org/1999/xlink" x="0px" y="0px"
	 viewBox="0 0 466 211" style="enable-background:new 0 0 466 211;" xml:space="preserve">
<style type="text/css">
	.st0{display:none;}
	.st1{display:inline;fill:url(#SVGID_1_);}
	.st2{display:inline;}
	.st3{opacity:0.5;fill:url(#SVGID_2_);}
</style>
<g>
	<g>
		<g class="st0">
			
				<linearGradient id="SVGID_1_" gradientUnits="userSpaceOnUse" x1="806.6086" y1="-16090.4365" x2="823.3096" y2="-16058.0625" gradientTransform="matrix(1 0 0 -1 0 -16030)">
				<stop  offset="0" style="stop-color:#FFE900"/>
				<stop  offset="1" style="stop-color:#FF13BD"/>
			</linearGradient>
			<path class="st1" d="M833.3,23.8h-26c-1.6,0-3,1.3-3,3v14.1c0,1.6,1.3,3,3,3h10.3l2,5.4c0.2,0.6,1.1,0.6,1.3,0l2-5.4h10.3
				c1.6,0,3-1.3,3-3V26.8C836.3,25.1,834.9,23.8,833.3,23.8z"/>
			<g class="st2">
				<text transform="matrix(1 0 0 1 808.5909 37.3141)" style="fill:#FFFFFF; font-family:'Montserrat-Bold'; font-size:8.981px;">1320</text>
			</g>
		</g>
		<linearGradient id="SVGID_2_" gradientUnits="userSpaceOnUse" x1="233.5369" y1="157.5872" x2="233.5369" y2="50.3256">
			<stop  offset="0" style="stop-color:#FCFCFC;stop-opacity:0"/>
			<stop  offset="1" style="stop-color:#B9C9D4"/>
		</linearGradient>
		<path class="st3" d="M25.5,157.6l47.3-47.2c3.7-3.7,9.7-3.6,13.2,0.2l17.8,19c3.6,3.9,9.8,3.9,13.4,0l2.1-2.2
			c1.7-1.9,4.2-2.9,6.7-2.9h17.3c2.5,0,5-1.1,6.7-2.9l44-46.9c3.6-3.9,9.8-3.9,13.4,0L220.9,89l12.8,13.7c3.6,3.9,9.8,3.9,13.4,0
			l46.4-49.4c3.6-3.9,9.8-3.9,13.4,0l9.6,10.2c3.6,3.9,9.8,3.9,13.4,0l0,0c4-4.2,10.8-3.8,14.2,0.9l22,30.8c2.7,3.8,7.9,5,12,2.7
			l7.5-4.2c4.1-2.3,9.2-1.1,12,2.7l44.1,61.3"/>
	</g>
</g>
</svg>
